<?xml version="1.0" encoding="UTF-8"?>
<!DOCTYPE svg PUBLIC "-//W3C//DTD SVG 1.1//EN" "http://www.w3.org/Graphics/SVG/1.1/DTD/svg11.dtd">
<!-- Creator: CorelDRAW 2018 (64-Bit) -->
<svg xmlns="http://www.w3.org/2000/svg" xml:space="preserve" width="46.5519mm" height="39.228mm" version="1.1" style="shape-rendering:geometricPrecision; text-rendering:geometricPrecision; image-rendering:optimizeQuality; fill-rule:evenodd; clip-rule:evenodd"
viewBox="0 0 6772 5707"
 xmlns:xlink="http://www.w3.org/1999/xlink">
 <defs>
  <style type="text/css">
   <![CDATA[
    .fil0 {fill:#E42624}
    .fil1 {fill:#E42624;fill-rule:nonzero}
   ]]>
  </style>
 </defs>
 <g id="Слой_x0020_1">
  <metadata id="CorelCorpID_0Corel-Layer"/>
  <g id="_2425372510752">
   <g>
    <path class="fil0" d="M5611 4366l-1 0c-39,17 -57,62 -40,101 12,28 40,47 71,47 10,0 21,-2 30,-6 39,-17 57,-62 40,-101 -17,-39 -61,-57 -100,-41z"/>
    <path class="fil0" d="M5062 4047c103,0 212,-22 302,-74 69,-39 131,-100 153,-178 5,-19 8,-38 8,-57 0,-19 -3,-39 -8,-57 -21,-79 -84,-139 -153,-178 -90,-52 -199,-74 -302,-74 -103,0 -212,22 -302,74 -69,39 -131,100 -153,178 -5,19 -8,38 -8,57 0,19 3,39 8,57 21,79 84,139 153,178 90,52 199,74 302,74zm0 -465c73,0 151,14 217,48 39,20 93,59 93,108 0,49 -54,88 -93,108 -65,34 -144,48 -217,48 -73,0 -151,-14 -217,-48 -39,-20 -93,-59 -93,-108 0,-49 54,-88 93,-108 65,-34 144,-48 217,-48z"/>
    <path class="fil0" d="M5181 4644c42,-4 73,-41 70,-83 -4,-42 -41,-73 -83,-70 -37,3 -73,5 -110,5 -217,0 -404,-51 -603,-137 -107,-46 -211,-97 -315,-148 -113,-55 -226,-111 -342,-160 -284,-121 -575,-204 -878,-246l-83 144c313,37 611,120 901,243 113,48 224,102 335,156 106,52 213,104 322,151 158,68 317,120 489,140 58,7 117,10 175,10 41,0 83,-2 124,-6zm-1588 -2009c134,-26 268,-47 403,-64 147,-18 297,-28 445,-32 220,-6 442,2 660,32 327,45 725,152 942,422 113,141 153,310 153,488 0,228 -81,438 -229,611 -28,32 -24,81 8,108 32,27 81,24 108,-8 173,-201 266,-446 266,-711 0,-216 -51,-414 -187,-584 -243,-304 -671,-427 -1040,-478 -218,-30 -440,-40 -661,-34 -162,4 -324,15 -484,34 -95,11 -190,25 -284,41l-101 175z"/>
    <path class="fil0" d="M1417 3885l0 121c0,296 149,530 391,694 268,182 627,266 945,300 224,24 438,73 650,150 178,65 347,146 517,229 83,41 166,81 251,120 133,60 268,112 409,149 157,41 316,60 478,60 319,0 632,-81 908,-242 258,-150 476,-366 621,-628 122,-222 187,-468 187,-722l0 -634c0,-430 -156,-793 -495,-1062 -373,-296 -899,-415 -1364,-449 -230,-17 -463,-15 -693,1 -139,10 -277,24 -415,44l37 137c1,4 2,9 2,14 6,-1 12,-2 18,-2 197,-26 395,-43 593,-48 315,-8 639,11 946,80 277,62 556,167 780,345 300,238 437,561 437,941 0,216 -52,427 -152,619 -128,247 -328,450 -567,591 -255,151 -547,228 -843,228 -232,0 -442,-43 -658,-126 -141,-54 -277,-121 -412,-187 -175,-86 -349,-169 -532,-235 -223,-81 -449,-133 -685,-158 -26,-3 -53,-6 -81,-10l-83 143c50,8 99,14 147,19 224,24 438,73 649,150 178,65 347,146 516,229 83,41 166,82 251,120 133,60 268,112 409,149 157,41 316,60 478,60 308,0 612,-76 881,-227 253,-141 469,-344 618,-592l69 -115 -16 134c-19,162 -68,318 -143,462 -128,247 -328,450 -567,591 -255,151 -547,228 -843,228 -232,0 -442,-43 -658,-126 -141,-54 -277,-121 -412,-187 -175,-86 -349,-169 -532,-235 -223,-81 -449,-133 -685,-158 -474,-50 -1199,-243 -1199,-841l0 -32 -154 -89z"/>
   </g>
   <g>
    <path class="fil1" d="M3762 920c-6,-21 -19,-40 -40,-52l-1482 -856c-20,-11 -43,-14 -65,-9 -22,6 -41,20 -52,40l-385 667c-5,9 -9,20 -11,31l-63 440 -505 875c-8,15 -12,31 -11,48l16 251 -225 111c-15,8 -28,19 -36,34l-427 741c-24,41 -10,93 31,117l1333 771c20,11 43,14 65,9 22,-6 41,-20 52,-40l1795 -3113c12,-21 14,-44 8,-65zm-1533 -717l1333 771 -1710 2965 -1185 -685 372 -645 253 -125c31,-15 50,-48 48,-82l-18 -282 500 -867c5,-9 9,-20 11,-31l63 -440 334 -579z"/>
    <path class="fil1" d="M4355 1263c-6,-21 -19,-40 -40,-52l-593 -342c-20,-11 -43,-14 -65,-9 -22,6 -41,20 -52,40l-1795 3113c-24,41 -10,93 31,117l593 343c20,11 43,14 65,9 22,-6 41,-20 52,-40l1282 -2224c11,-20 14,-43 8,-65l-72 -268 268 -72c22,-6 41,-20 52,-40l256 -445c12,-20 14,-44 9,-65zm-644 -203l444 257 -196 340 -316 85c-46,12 -73,59 -61,105l85 317 -1222 2119 -444 -257 1710 -2965z"/>
    <path class="fil1" d="M2776 745c-6,-21 -19,-40 -40,-52l-296 -171c-20,-11 -43,-14 -65,-9 -22,6 -41,20 -52,40l-171 297c-24,41 -10,93 31,117l296 171c20,11 43,14 65,9 22,-6 41,-20 52,-40l171 -297c12,-20 14,-44 8,-65zm-348 -32l148 85 -85 148 -148 -85 85 -148z"/>
    <path class="fil1" d="M2098 3121c-6,-21 -20,-40 -40,-52 -41,-24 -93,-10 -117,31l-256 445c-24,41 -10,93 31,117 41,24 93,10 117,-31l256 -445c12,-20 14,-44 9,-65z"/>
    <path class="fil1" d="M1930 2727c-6,-21 -20,-40 -40,-52 -41,-24 -93,-10 -117,31l-256 445c-24,41 -10,93 31,117 41,24 94,10 117,-31l256 -445c12,-20 14,-44 8,-65z"/>
    <path class="fil1" d="M1374 3691c-6,-21 -19,-40 -40,-52l-444 -257c-20,-11 -43,-14 -65,-9 -22,6 -41,20 -52,40l-727 1260c-94,164 -38,373 125,468 79,46 172,58 260,34 88,-24 162,-80 208,-160l-74 -43 74 43 727 -1260c12,-20 14,-44 9,-65zm-496 -118l296 171 -684 1186c-23,40 -60,68 -104,80 -44,12 -90,6 -130,-17 -82,-47 -110,-152 -63,-234l684 -1186z"/>
    <path class="fil1" d="M832 4631c-6,-21 -19,-40 -40,-52l-445 -257c-41,-24 -93,-10 -117,31 -24,41 -10,93 31,117l445 257c41,24 93,10 117,-31 12,-20 14,-44 9,-65z"/>
    <path class="fil1" d="M1059 4237c-6,-21 -19,-40 -40,-52l-445 -257c-41,-24 -93,-10 -117,31 -24,41 -10,93 31,117l445 257c41,24 93,10 117,-31 12,-21 14,-44 9,-65z"/>
   </g>
  </g>
 </g>
</svg>
