<?xml version="1.0" encoding="UTF-8"?>
<!DOCTYPE svg PUBLIC "-//W3C//DTD SVG 1.1//EN" "http://www.w3.org/Graphics/SVG/1.1/DTD/svg11.dtd">
<!-- Creator: CorelDRAW 2018 (64-Bit) -->
<svg xmlns="http://www.w3.org/2000/svg" xml:space="preserve" width="35.9828mm" height="32.718mm" version="1.1" style="shape-rendering:geometricPrecision; text-rendering:geometricPrecision; image-rendering:optimizeQuality; fill-rule:evenodd; clip-rule:evenodd"
viewBox="0 0 4437 4034"
 xmlns:xlink="http://www.w3.org/1999/xlink">
 <defs>
  <style type="text/css">
   <![CDATA[
    .fil0 {fill:white;fill-rule:nonzero}
   ]]>
  </style>
 </defs>
 <g id="Слой_x0020_1">
  <metadata id="CorelCorpID_0Corel-Layer"/>
  <g id="_2721071107280">
   <path class="fil0" d="M4196 0l-3956 0c-133,0 -241,108 -241,241l0 871c0,36 29,66 66,66 36,0 66,-29 66,-66l0 -871c0,-60 49,-109 109,-109l3956 0c60,0 109,49 109,109l0 2625c0,60 -49,109 -109,109l-1359 0c4,-30 7,-61 7,-92 0,-31 -2,-62 -7,-92l851 0c36,0 66,-29 66,-66 0,-166 135,-302 302,-302 36,0 66,-29 66,-66l0 -1117c0,-36 -29,-66 -66,-66 -36,0 -66,29 -66,66l0 1056c-186,28 -334,176 -363,363l-825 0c-90,-235 -318,-403 -584,-403 -266,0 -494,167 -584,403l-825 0c-28,-186 -176,-334 -363,-363l0 -1489c186,-28 334,-176 363,-363l2819 0c28,186 176,334 363,363l0 127c0,36 29,66 66,66 36,0 66,-29 66,-66l0 -188c0,-36 -29,-66 -66,-66 -166,0 -302,-135 -302,-302 0,-36 -29,-66 -66,-66l-2940 0c-36,0 -66,29 -66,66 0,166 -135,302 -302,302 -36,0 -66,29 -66,66l0 1610c0,36 29,66 66,66 166,0 302,135 302,302 0,36 29,66 66,66l851 0c-4,30 -7,61 -7,92 0,31 2,62 7,92l-1359 0c-60,0 -109,-49 -109,-109l0 -1449c0,-36 -29,-66 -66,-66 -36,0 -66,29 -66,66l0 1449c0,133 108,241 241,241l1393 0c22,58 53,112 90,160l0 702c0,22 11,42 29,54 18,12 41,15 61,6l404 -165 404 165c8,3 16,5 25,5 13,0 26,-4 37,-11 18,-12 29,-33 29,-54l0 -188c0,-36 -29,-66 -66,-66 -36,0 -66,29 -66,66l0 90 -338 -138c-16,-6 -34,-6 -50,0l-338 138 0 -478c102,73 228,117 363,117 135,0 261,-43 363,-117l0 82c0,36 29,66 66,66 36,0 66,-29 66,-66l0 -208c37,-48 68,-102 90,-160l1393 0c133,0 241,-108 241,-241l0 -2625c0,-133 -108,-241 -241,-241zm-1978 3378c-273,0 -494,-222 -494,-494 0,-273 222,-494 494,-494 273,0 494,222 494,494 0,273 -222,494 -494,494z"/>
   <path class="fil0" d="M2796 866c36,0 66,-29 66,-66 0,-36 -29,-66 -66,-66l-1155 0c-36,0 -66,29 -66,66 0,36 29,66 66,66l1155 0z"/>
   <path class="fil0" d="M3234 1085l-2030 0c-36,0 -66,29 -66,66 0,36 29,66 66,66l2030 0c36,0 66,-29 66,-66 0,-36 -29,-66 -66,-66z"/>
   <path class="fil0" d="M3234 1435l-2030 0c-36,0 -66,29 -66,66 0,36 29,66 66,66l2030 0c36,0 66,-29 66,-66 0,-36 -29,-66 -66,-66z"/>
   <path class="fil0" d="M3234 1838l-315 0c-36,0 -66,29 -66,66 0,36 29,66 66,66l315 0c36,0 66,-29 66,-66 0,-36 -29,-66 -66,-66z"/>
   <path class="fil0" d="M1203 1838c-36,0 -66,29 -66,66 0,36 29,66 66,66l315 0c36,0 66,-29 66,-66 0,-36 -29,-66 -66,-66l-315 0z"/>
   <path class="fil0" d="M2218 2538c-191,0 -346,155 -346,346 0,191 155,346 346,346 191,0 346,-155 346,-346 0,-191 -155,-346 -346,-346zm0 560c-118,0 -214,-96 -214,-214 0,-118 96,-214 214,-214 118,0 214,96 214,214 0,118 -96,214 -214,214z"/>
   <path class="fil0" d="M1995 1903c0,123 100,223 223,223 123,0 223,-100 223,-223 0,-123 -100,-223 -223,-223 -123,0 -223,100 -223,223zm315 0c0,51 -41,92 -92,92 -51,0 -92,-41 -92,-92 0,-51 41,-92 92,-92 51,0 92,41 92,92z"/>
  </g>
 </g>
</svg>
