<?xml version="1.0" encoding="UTF-8"?>
<!DOCTYPE svg PUBLIC "-//W3C//DTD SVG 1.1//EN" "http://www.w3.org/Graphics/SVG/1.1/DTD/svg11.dtd">
<!-- Creator: CorelDRAW 2018 (64-Bit) -->
<svg xmlns="http://www.w3.org/2000/svg" xml:space="preserve" width="67.9374mm" height="67.9374mm" version="1.1" style="shape-rendering:geometricPrecision; text-rendering:geometricPrecision; image-rendering:optimizeQuality; fill-rule:evenodd; clip-rule:evenodd"
viewBox="0 0 190328 190328"
 xmlns:xlink="http://www.w3.org/1999/xlink">
 <defs>
  <style type="text/css">
   <![CDATA[
    .fil0 {fill:white;fill-rule:nonzero}
   ]]>
  </style>
 </defs>
 <g id="Слой_x0020_1">
  <metadata id="CorelCorpID_0Corel-Layer"/>
  <g id="_1878623064192">
   <path class="fil0" d="M95164 0c-52481,0 -95164,42682 -95164,95164 0,52481 42683,95164 95164,95164 52482,0 95164,-42683 95164,-95164 0,-52482 -42682,-95164 -95164,-95164zm0 183007c-48441,0 -87843,-39402 -87843,-87843 0,-48442 39402,-87843 87843,-87843 48442,0 87843,39401 87843,87843 0,48441 -39401,87843 -87843,87843z"/>
   <path class="fil0" d="M130697 59631c-1430,-1429 -3753,-1429 -5182,0l-30351 30365 -30349 -30365c-1430,-1429 -3753,-1429 -5182,0 -1430,1430 -1430,3753 0,5182l30363 30351 -30363 30349c-1430,1430 -1430,3753 0,5182 722,710 1659,1069 2591,1069 931,0 1867,-360 2591,-1069l30349 -30363 30351 30363c722,710 1659,1069 2591,1069 931,0 1867,-360 2591,-1069 1429,-1429 1429,-3752 0,-5182l-30365 -30349 30365 -30351c1429,-1429 1429,-3752 0,-5182z"/>
  </g>
 </g>
</svg>
