<?xml version="1.0" encoding="UTF-8"?>
<!DOCTYPE svg PUBLIC "-//W3C//DTD SVG 1.1//EN" "http://www.w3.org/Graphics/SVG/1.1/DTD/svg11.dtd">
<!-- Creator: CorelDRAW 2018 (64-Bit) -->
<svg xmlns="http://www.w3.org/2000/svg" xml:space="preserve" width="35.3584mm" height="22.3666mm" version="1.1" style="shape-rendering:geometricPrecision; text-rendering:geometricPrecision; image-rendering:optimizeQuality; fill-rule:evenodd; clip-rule:evenodd"
viewBox="0 0 8842 5593"
 xmlns:xlink="http://www.w3.org/1999/xlink">
 <defs>
  <style type="text/css">
   <![CDATA[
    .fil0 {fill:#E42624;fill-rule:nonzero}
   ]]>
  </style>
 </defs>
 <g id="Слой_x0020_1">
  <metadata id="CorelCorpID_0Corel-Layer"/>
  <g id="_2425340528224">
   <path class="fil0" d="M8223 2371l-229 -916c63,-13 110,-69 110,-135l0 -148c0,-321 -261,-581 -581,-581l-1043 0 0 -305c0,-158 -128,-286 -286,-286l-5316 0c-158,0 -286,128 -286,286l0 2510c0,76 62,138 138,138 76,0 139,-62 139,-138l0 -2510c0,-5 4,-9 9,-9l5316 0c5,0 9,4 9,9l0 2510c0,76 62,139 138,139 76,0 139,-62 139,-139l0 -157 1633 0c0,0 0,0 0,0 0,0 0,0 0,0 201,0 372,132 430,314l-430 0c-76,0 -138,62 -138,138l0 295c0,239 195,434 434,434l157 0 0 609 -362 0c-119,-343 -445,-591 -829,-591 -383,0 -710,247 -829,591l-67 0 0 -1043c0,-76 -62,-138 -138,-138 -76,0 -138,62 -138,138l0 1043 -2872 0c-119,-343 -445,-591 -829,-591 -383,0 -710,247 -829,591l-796 0c-5,0 -9,-4 -9,-9l0 -305 600 0c76,0 138,-62 138,-138 0,-76 -62,-138 -138,-138l-1329 0c-76,0 -138,62 -138,138 0,76 62,138 138,138l452 0 0 305c0,158 128,286 286,286l748 0c0,3 0,6 0,9 0,484 393,877 877,877 483,0 877,-393 877,-877 0,-3 0,-6 0,-9l3120 0c0,3 0,6 0,9 0,484 393,877 877,877 483,0 877,-393 877,-877 0,-3 0,-6 0,-9l453 0c76,0 138,-62 138,-138l0 -1477c0,-365 -269,-667 -619,-721zm-1744 -1503l1043 0c168,0 305,137 305,305l0 9 -1348 0 0 -314zm0 1495l0 -904 1230 0 226 904 -1456 0zm-3978 2953c-331,0 -600,-269 -600,-600 0,-331 269,-600 600,-600 331,0 600,269 600,600 0,331 -269,600 -600,600zm4873 0c-331,0 -600,-269 -600,-600 0,-331 269,-600 600,-600 331,0 600,269 600,600 0,331 -269,600 -600,600zm1191 -1772l-157 0c-87,0 -157,-70 -157,-157l0 -157 314 0 0 314 0 0z"/>
   <path class="fil0" d="M2501 4430c-158,0 -286,128 -286,286 0,158 128,286 286,286 158,0 286,-128 286,-286 0,-158 -128,-286 -286,-286z"/>
   <path class="fil0" d="M7374 4430c-158,0 -286,128 -286,286 0,158 128,286 286,286 158,0 286,-128 286,-286 0,-158 -128,-286 -286,-286z"/>
   <path class="fil0" d="M5750 3839l-2067 0c-76,0 -138,62 -138,139 0,76 62,138 138,138l2067 0c76,0 138,-62 138,-138 0,-76 -62,-139 -138,-139z"/>
   <path class="fil0" d="M2206 3249l-1772 0c-76,0 -138,62 -138,138 0,77 62,139 138,139l1772 0c76,0 138,-62 138,-139 0,-76 -62,-138 -138,-138z"/>
   <path class="fil0" d="M4814 1370c-54,-54 -142,-54 -196,0l-1231 1231 -640 -640c-54,-54 -142,-54 -196,0 -54,54 -54,142 0,196l738 738c27,27 62,41 98,41 35,0 71,-14 98,-41l1329 -1329c54,-54 54,-142 0,-196z"/>
  </g>
 </g>
</svg>
