<?xml version="1.0" encoding="UTF-8"?>
<!DOCTYPE svg PUBLIC "-//W3C//DTD SVG 1.1//EN" "http://www.w3.org/Graphics/SVG/1.1/DTD/svg11.dtd">
<!-- Creator: CorelDRAW 2018 (64-Bit) -->
<svg xmlns="http://www.w3.org/2000/svg" xml:space="preserve" width="33.5159mm" height="33.5104mm" version="1.1" style="shape-rendering:geometricPrecision; text-rendering:geometricPrecision; image-rendering:optimizeQuality; fill-rule:evenodd; clip-rule:evenodd"
viewBox="0 0 16946 16943"
 xmlns:xlink="http://www.w3.org/1999/xlink">
 <defs>
  <style type="text/css">
   <![CDATA[
    .fil0 {fill:#E42624;fill-rule:nonzero}
   ]]>
  </style>
 </defs>
 <g id="Слой_x0020_1">
  <metadata id="CorelCorpID_0Corel-Layer"/>
  <g id="_2425284882832">
   <path class="fil0" d="M16915 4016c-58,-217 -201,-402 -395,-514 -195,-113 -427,-143 -644,-85 -217,58 -402,201 -514,395l-141 246c-134,-77 -305,-32 -384,102l-717 1223 -246 -141c-65,-38 -143,-48 -215,-28 -73,20 -134,67 -172,133 -77,135 -30,306 105,384l246 141 -2400 4160 -593 1584 -282 528c-165,288 -148,645 45,915l-635 779 -178 -446c-80,-199 -266,-335 -480,-352 -214,-17 -418,89 -529,273l-102 172 -96 -1130c-22,-267 -229,-482 -495,-514 -266,-32 -518,127 -603,382l-695 2084c-49,147 31,306 178,356 28,13 57,21 88,22 121,0 229,-77 268,-192l692 -2084 99 1146c20,244 196,448 435,503 239,55 487,-50 612,-260l105 -172 175 443c74,187 242,320 441,350 199,30 399,-49 524,-206l658 -833c73,19 148,29 223,28 303,2 584,-157 737,-418l282 -472 1076 -1307 2426 -4210 246 141c65,38 113,99 133,172 20,72 9,150 -28,215l-1130 1957c-43,64 -57,143 -40,218 17,75 64,140 130,180 65,38 143,48 215,28 73,-20 134,-67 172,-133l1129 -1957c113,-195 143,-427 85,-644 -58,-217 -201,-402 -395,-514l-246 -141 706 -1223c77,-134 32,-305 -102,-384l141 -246c116,-198 146,-434 85,-655zm-1065 79c37,-65 99,-113 172,-133 73,-18 149,-8 215,28 66,37 113,99 133,172 18,73 8,149 -28,215l-141 246 -491 -282 141 -246zm-3849 7884l-141 -82 -418 -243 401 -1073 889 514 -731 884zm-847 816c-119,-83 -156,-243 -85,-370l141 -246 491 282 -141 243c-40,69 -106,118 -183,135 -77,17 -158,1 -223,-44zm1900 -2163l-977 -565 2259 -3914 977 565 -2259 3914zm2542 -4402l-977 -565 565 -977 977 565 -565 977z"/>
   <path class="fil0" d="M4456 12654l-999 997 -599 -599c-110,-109 -288,-109 -398,0 -53,53 -84,125 -84,201 0,75 30,148 84,201l599 599c106,105 249,164 398,164 150,1 294,-58 401,-164l997 -1000c96,-112 89,-279 -15,-383 -104,-104 -271,-111 -384,-15z"/>
   <path class="fil0" d="M1130 13413c0,1326 1075,2400 2400,2400 1326,0 2400,-1075 2400,-2400 0,-156 -126,-282 -282,-282 -156,0 -282,126 -282,282 0,1014 -822,1836 -1835,1836 -1014,0 -1836,-822 -1836,-1836 0,-1014 822,-1836 1836,-1836 397,-1 784,128 1101,367 125,94 302,68 395,-57 94,-125 68,-302 -56,-395 -727,-545 -1701,-633 -2514,-227 -813,407 -1327,1238 -1327,2147z"/>
   <path class="fil0" d="M10166 2259c156,0 282,-126 282,-282 0,-156 -126,-282 -282,-282l-7342 0c-156,0 -282,126 -282,282l0 1130c0,156 126,282 282,282l7342 0c156,0 282,-126 282,-282 0,-156 -126,-282 -282,-282l-7060 0 0 -565 7060 0z"/>
   <path class="fil0" d="M3671 3953c-156,0 -282,126 -282,282 0,156 126,282 282,282l5648 0c156,0 282,-126 282,-282 0,-156 -126,-282 -282,-282l-5648 0z"/>
   <path class="fil0" d="M11013 5930l-6212 0c-156,0 -282,126 -282,282 0,156 126,282 282,282l6212 0c156,0 282,-126 282,-282 0,-156 -126,-282 -282,-282z"/>
   <path class="fil0" d="M8189 7907c0,-156 -126,-282 -282,-282l-5648 0c-156,0 -282,126 -282,282 0,156 126,282 282,282l5648 0c156,0 282,-126 282,-282z"/>
   <path class="fil0" d="M11013 7624l-1977 0c-156,0 -282,126 -282,282 0,156 126,282 282,282l1977 0c156,0 282,-126 282,-282 0,-156 -126,-282 -282,-282z"/>
   <path class="fil0" d="M5083 9601c156,0 282,-126 282,-282 0,-156 -126,-282 -282,-282l-2824 0c-156,0 -282,126 -282,282 0,156 126,282 282,282l2824 0z"/>
   <path class="fil0" d="M6212 9601l1977 0c156,0 282,-126 282,-282 0,-156 -126,-282 -282,-282l-1977 0c-156,0 -282,126 -282,282 0,156 126,282 282,282z"/>
   <path class="fil0" d="M12707 12990c-156,0 -282,126 -282,282l0 2824c0,156 -126,282 -282,282l-11295 0c-156,0 -282,-126 -282,-282l0 -15249c0,-156 126,-282 282,-282l11295 0c156,0 282,126 282,282l0 5303c0,156 126,282 282,282 156,0 282,-126 282,-282l0 -5303c0,-468 -379,-847 -847,-847l-11295 0c-468,0 -847,379 -847,847l0 15249c0,468 379,847 847,847l11295 0c468,0 847,-379 847,-847l0 -2824c0,-156 -127,-282 -282,-282z"/>
  </g>
 </g>
</svg>
