<?xml version="1.0" encoding="UTF-8"?>
<!DOCTYPE svg PUBLIC "-//W3C//DTD SVG 1.1//EN" "http://www.w3.org/Graphics/SVG/1.1/DTD/svg11.dtd">
<!-- Creator: CorelDRAW 2018 (64-Bit) -->
<svg xmlns="http://www.w3.org/2000/svg" xml:space="preserve" width="67.9374mm" height="67.9374mm" version="1.1" style="shape-rendering:geometricPrecision; text-rendering:geometricPrecision; image-rendering:optimizeQuality; fill-rule:evenodd; clip-rule:evenodd"
viewBox="0 0 31509 31509"
 xmlns:xlink="http://www.w3.org/1999/xlink">
 <defs>
  <style type="text/css">
   <![CDATA[
    .fil0 {fill:white;fill-rule:nonzero}
   ]]>
  </style>
 </defs>
 <g id="Слой_x0020_1">
  <metadata id="CorelCorpID_0Corel-Layer"/>
  <g id="_1878618016240">
   <path class="fil0" d="M15754 0c-8688,0 -15754,7066 -15754,15754 0,8688 7066,15754 15754,15754 8688,0 15754,-7066 15754,-15754 0,-8688 -7066,-15754 -15754,-15754zm0 30297c-8019,0 -14543,-6523 -14543,-14543 0,-8020 6523,-14543 14543,-14543 8020,0 14543,6523 14543,14543 0,8019 -6523,14543 -14543,14543z"/>
   <path class="fil0" d="M23178 9294l-9310 10475 -5611 -4488c-262,-209 -644,-167 -852,94 -209,262 -167,644 94,852l6060 4847c111,88 246,133 379,133 167,0 335,-69 454,-205l9695 -10907c221,-249 199,-631 -50,-853 -252,-224 -634,-202 -858,51z"/>
  </g>
 </g>
</svg>
