<?xml version="1.0" encoding="UTF-8"?>
<!DOCTYPE svg PUBLIC "-//W3C//DTD SVG 1.1//EN" "http://www.w3.org/Graphics/SVG/1.1/DTD/svg11.dtd">
<!-- Creator: CorelDRAW 2018 (64-Bit) -->
<svg xmlns="http://www.w3.org/2000/svg" xml:space="preserve" width="19.5007mm" height="14.8404mm" version="1.1" style="shape-rendering:geometricPrecision; text-rendering:geometricPrecision; image-rendering:optimizeQuality; fill-rule:evenodd; clip-rule:evenodd"
viewBox="0 0 1890 1438"
 xmlns:xlink="http://www.w3.org/1999/xlink">
 <defs>
  <style type="text/css">
   <![CDATA[
    .fil0 {fill:#00ca4e}
   ]]>
  </style>
 </defs>
 <g id="Слой_x0020_1">
  <metadata id="CorelCorpID_0Corel-Layer"/>
  <g id="_2721069652944">
   <g>
    <g>
     <path class="fil0" d="M1659 0l-1428 0c-127,0 -231,104 -231,231l0 976c0,127 104,231 231,231l1428 0c127,0 231,-104 231,-231l0 -976c0,-127 -103,-232 -231,-232zm126 1207c0,69 -56,126 -126,126l-1428 0c-69,0 -126,-56 -126,-126l0 -976c0,-69 56,-126 126,-126l1428 0c69,0 126,56 126,126l0 976 0 0z"/>
     <path class="fil0" d="M1192 707l462 -415c22,-20 23,-53 4,-75 -20,-22 -53,-23 -75,-4l-637 572 -124 -111c0,0 -1,-1 -1,-1 -3,-3 -5,-5 -9,-7l-506 -453c-22,-20 -55,-18 -75,4 -20,22 -18,55 4,75l468 418 -466 436c-21,20 -22,53 -2,75 11,11 25,17 39,17 13,0 26,-5 36,-14l473 -442 128 115c10,9 23,13 35,13 13,0 25,-5 35,-14l132 -118 470 447c10,10 23,14 36,14 14,0 28,-5 38,-16 20,-21 19,-55 -2,-75l-464 -441z"/>
    </g>
   </g>
   <g>
   </g>
   <g>
   </g>
   <g>
   </g>
   <g>
   </g>
   <g>
   </g>
   <g>
   </g>
   <g>
   </g>
   <g>
   </g>
   <g>
   </g>
   <g>
   </g>
   <g>
   </g>
   <g>
   </g>
   <g>
   </g>
   <g>
   </g>
   <g>
   </g>
  </g>
 </g>
</svg>
