<?xml version="1.0" encoding="UTF-8"?>
<!DOCTYPE svg PUBLIC "-//W3C//DTD SVG 1.1//EN" "http://www.w3.org/Graphics/SVG/1.1/DTD/svg11.dtd">
<!-- Creator: CorelDRAW 2018 (64-Bit) -->
<svg xmlns="http://www.w3.org/2000/svg" xml:space="preserve" width="42.5228mm" height="33.0832mm" version="1.1" style="shape-rendering:geometricPrecision; text-rendering:geometricPrecision; image-rendering:optimizeQuality; fill-rule:evenodd; clip-rule:evenodd"
viewBox="0 0 12428 9669"
 xmlns:xlink="http://www.w3.org/1999/xlink">
 <defs>
  <style type="text/css">
   <![CDATA[
    .fil0 {fill:white}
   ]]>
  </style>
 </defs>
 <g id="Слой_x0020_1">
  <metadata id="CorelCorpID_0Corel-Layer"/>
  <g id="_2721071125808">
   <g>
    <path class="fil0" d="M4210 1964c-436,0 -869,227 -1064,627 -63,130 -97,272 -97,417 0,145 33,287 97,417 195,400 628,627 1064,627 436,0 869,-227 1064,-627 63,-130 97,-272 97,-417 0,-145 -33,-287 -97,-417 -195,-400 -627,-627 -1064,-627zm0 1771c-335,0 -682,-179 -803,-505 -26,-71 -40,-146 -40,-221 0,-76 14,-150 40,-221 121,-326 469,-506 803,-506 335,0 682,180 803,506 26,71 40,146 40,221 0,76 -14,150 -40,221 -121,326 -469,505 -803,505z"/>
   </g>
   <g>
    <path class="fil0" d="M11299 3075c-293,-579 -994,-962 -1570,-1198 -56,-23 -111,-45 -168,-66 -550,-210 -1136,-362 -1714,-475 -306,-60 -613,-111 -922,-154 -87,-12 -167,49 -179,135 -12,87 49,167 135,179 303,42 605,92 905,151 395,77 788,172 1172,291 322,100 642,218 946,364 406,196 900,500 1111,916 76,151 110,311 110,480 0,861 -700,1561 -1561,1561 -828,0 -1625,141 -2410,406 -346,117 -684,257 -1021,397 -223,93 -447,186 -673,271 -487,185 -962,313 -1486,313 -1473,0 -2672,-1199 -2672,-2672 0,-1473 1199,-2672 2672,-2672 281,0 562,5 842,16 48,2 95,4 143,6 88,4 162,-64 166,-152 4,-88 -64,-162 -152,-165 -48,-2 -97,-4 -145,-6 -284,-11 -569,-16 -854,-16 -1648,0 -2989,1341 -2989,2989 0,1648 1341,2989 2989,2989 565,0 1072,-134 1598,-333 229,-87 456,-181 683,-275 331,-137 662,-275 1001,-389 752,-253 1516,-389 2309,-389 1035,0 1878,-842 1878,-1878 0,-221 -45,-426 -144,-624z"/>
   </g>
   <g>
    <path class="fil0" d="M5744 1054l-13 -1c-87,-7 -164,59 -171,146 -7,86 58,165 145,171l13 1c5,0 9,1 14,1 83,0 151,-64 158,-146 7,-87 -59,-164 -146,-171z"/>
   </g>
   <g>
    <path class="fil0" d="M10742 5954l0 0 -2 1c-78,39 -110,135 -71,213 27,54 82,88 142,88 24,0 48,-6 70,-17 78,-38 111,-132 74,-210 -37,-79 -132,-113 -211,-76l-2 1z"/>
   </g>
   <g>
    <path class="fil0" d="M11389 1695c-670,-534 -1561,-874 -2380,-1099 -185,-51 -370,-97 -557,-139 -860,-195 -1745,-313 -2624,-382 -616,-49 -1237,-75 -1855,-75 -2191,0 -3974,1783 -3974,3974l0 1721c0,2191 1783,3974 3974,3974 342,0 678,-37 1012,-110 308,-67 608,-164 903,-275 229,-86 455,-180 681,-275 443,-185 883,-365 1346,-496 543,-154 1085,-231 1649,-231 1578,0 2863,-1284 2863,-2863l0 -1721c0,-833 -395,-1491 -1039,-2004zm-7415 5935c-2016,0 -3657,-1640 -3657,-3657 0,-2016 1640,-3657 3657,-3657 600,0 1204,25 1802,72 854,67 1715,179 2552,366 200,45 400,94 598,148 1351,371 3185,1132 3185,2796 0,699 -295,1373 -804,1851 -64,60 -67,161 -7,224 60,64 161,67 224,7 161,-151 304,-321 426,-505l160 -242 0 386c0,1404 -1142,2545 -2545,2545 -587,0 -1152,78 -1717,236 -482,135 -939,323 -1401,515 -265,110 -530,221 -800,318 -550,197 -1086,317 -1673,317 -1925,0 -3526,-1502 -3649,-3421l-25 -391 189 343c698,1270 2030,2066 3485,2066 342,0 678,-37 1012,-110 308,-67 608,-164 903,-275 229,-86 455,-181 681,-275 443,-185 883,-365 1346,-496 543,-154 1085,-231 1649,-231 89,0 178,-4 267,-13 87,-8 151,-86 143,-173 -8,-87 -86,-151 -173,-143 -79,7 -158,11 -238,11 -587,0 -1152,78 -1717,236 -482,135 -939,323 -1401,515 -265,110 -530,221 -800,318 -550,197 -1086,317 -1673,317z"/>
   </g>
  </g>
 </g>
</svg>
