<?xml version="1.0" encoding="UTF-8"?>
<!DOCTYPE svg PUBLIC "-//W3C//DTD SVG 1.1//EN" "http://www.w3.org/Graphics/SVG/1.1/DTD/svg11.dtd">
<!-- Creator: CorelDRAW 2018 (64-Bit) -->
<svg xmlns="http://www.w3.org/2000/svg" xml:space="preserve" width="19.4723mm" height="19.5006mm" version="1.1" style="shape-rendering:geometricPrecision; text-rendering:geometricPrecision; image-rendering:optimizeQuality; fill-rule:evenodd; clip-rule:evenodd"
viewBox="0 0 1485 1487"
 xmlns:xlink="http://www.w3.org/1999/xlink">
 <defs>
  <style type="text/css">
   <![CDATA[
    .fil0 {fill:#00ca4e}
   ]]>
  </style>
 </defs>
 <g id="Слой_x0020_1">
  <metadata id="CorelCorpID_0Corel-Layer"/>
  <g id="_2721030282880">
   <g>
    <g>
     <path class="fil0" d="M1174 921c-30,-32 -67,-49 -106,-49 -39,0 -76,17 -107,48l-99 99c-8,-4 -16,-8 -24,-13 -11,-6 -22,-11 -31,-17 -93,-59 -177,-136 -258,-235 -39,-50 -66,-91 -85,-134 26,-24 50,-48 73,-72 9,-9 18,-18 26,-27 66,-66 66,-151 0,-217l-86 -86c-10,-10 -20,-20 -29,-30 -19,-19 -39,-40 -59,-58 -30,-30 -67,-46 -105,-46 -38,0 -75,16 -107,46 0,0 0,0 -1,1l-107 108c-40,40 -63,89 -68,146 -8,92 19,177 40,233 51,137 127,264 240,400 137,164 303,294 492,385 72,34 169,75 276,82 7,0 13,1 20,1 72,0 133,-26 181,-78 0,-1 1,-1 1,-2 16,-20 35,-38 55,-57 13,-13 27,-26 41,-40 31,-32 47,-70 47,-109 0,-39 -17,-76 -48,-108l-172 -173zm112 330c0,0 0,0 0,0 -12,13 -25,25 -38,38 -20,19 -41,40 -61,63 -32,34 -69,50 -118,50 -5,0 -10,0 -14,0 -93,-6 -180,-42 -245,-73 -178,-86 -334,-208 -463,-363 -107,-129 -179,-248 -226,-376 -29,-78 -40,-139 -35,-196 3,-37 17,-67 43,-93l107 -107c15,-14 32,-22 48,-22 20,0 36,12 46,22 0,0 1,1 1,1 19,18 37,36 56,56 10,10 20,20 30,30l86 86c33,33 33,64 0,97 -9,9 -18,18 -27,27 -26,27 -51,52 -79,77 -1,1 -1,1 -2,2 -27,27 -22,53 -16,71 0,1 1,2 1,3 22,54 54,105 101,165l0 0c87,107 178,190 279,254 13,8 26,15 39,21 11,6 22,11 31,17 1,1 3,2 4,2 11,5 21,8 31,8 26,0 42,-16 48,-22l107 -107c11,-11 28,-24 47,-24 19,0 35,12 45,23 0,0 0,0 1,1l173 173c32,32 32,65 0,98z"/>
     <path class="fil0" d="M802 354c82,14 157,53 217,112 60,60 98,134 112,217 3,21 21,35 42,35 3,0 5,0 7,-1 23,-4 39,-26 35,-49 -17,-99 -64,-190 -136,-262 -72,-72 -163,-119 -262,-136 -23,-4 -45,12 -49,35 -4,23 11,45 34,49z"/>
     <path class="fil0" d="M1484 656c-28,-164 -105,-313 -224,-431 -119,-119 -268,-196 -431,-224 -23,-4 -45,12 -49,35 -4,23 12,45 35,49 146,25 280,94 386,200 106,106 175,239 200,386 3,21 21,35 42,35 3,0 5,0 7,-1 23,-3 39,-25 35,-48z"/>
    </g>
   </g>
   <g>
   </g>
   <g>
   </g>
   <g>
   </g>
   <g>
   </g>
   <g>
   </g>
   <g>
   </g>
   <g>
   </g>
   <g>
   </g>
   <g>
   </g>
   <g>
   </g>
   <g>
   </g>
   <g>
   </g>
   <g>
   </g>
   <g>
   </g>
   <g>
   </g>
  </g>
 </g>
</svg>
