<?xml version="1.0" encoding="UTF-8"?>
<!DOCTYPE svg PUBLIC "-//W3C//DTD SVG 1.1//EN" "http://www.w3.org/Graphics/SVG/1.1/DTD/svg11.dtd">
<!-- Creator: CorelDRAW 2018 (64-Bit) -->
<svg xmlns="http://www.w3.org/2000/svg" xml:space="preserve" width="35.1499mm" height="35.1497mm" version="1.1" style="shape-rendering:geometricPrecision; text-rendering:geometricPrecision; image-rendering:optimizeQuality; fill-rule:evenodd; clip-rule:evenodd"
viewBox="0 0 3161 3161"
 xmlns:xlink="http://www.w3.org/1999/xlink">
 <defs>
  <style type="text/css">
   <![CDATA[
    .fil0 {fill:#E42624}
   ]]>
  </style>
 </defs>
 <g id="Слой_x0020_1">
  <metadata id="CorelCorpID_0Corel-Layer"/>
  <path class="fil0" d="M3079 14l-276 276 -10 -7c-150,-113 -358,-117 -509,-5l-10 7 -227 -234c0,0 0,0 -1,-1 -68,-68 -177,-68 -245,0l-1751 1758c-67,68 -68,177 0,245l253 253 -3 8c-54,154 -14,328 102,443 116,116 289,156 443,102l8 -3 253 253c68,68 177,67 245,0l1758 -1751c68,-67 68,-177 0,-245 0,0 0,0 -1,-1l-234 -227 7 -10c112,-151 109,-360 -5,-509l-7 -10 276 -276c19,-19 19,-50 0,-68 -19,-19 -50,-19 -68,0zm-304 841c-9,9 -14,22 -14,35 0,13 5,25 15,34l267 260c29,30 29,78 0,107l-1758 1751c-30,30 -78,30 -108,0l-276 -276c-9,-9 -21,-14 -34,-14 -7,0 -14,2 -21,5 -56,26 -120,36 -181,28 -73,-9 -140,-43 -192,-95 -52,-52 -85,-120 -95,-193 -8,-62 2,-125 28,-181 9,-18 5,-40 -10,-55l-276 -276c-30,-30 -30,-78 0,-108l1751 -1758c30,-30 78,-30 107,0l260 267c19,19 50,20 69,1 53,-53 121,-85 195,-92 77,-8 155,12 219,55l14 9 -110 110 -9 -4c-66,-31 -145,-18 -197,34 -67,67 -67,177 0,245 68,68 177,68 245,0 52,-52 65,-131 34,-197l-4 -9 110 -110 9 14c87,129 74,303 -37,414zm-181 -288c30,30 30,78 0,108 -30,30 -78,30 -108,0 -30,-30 -30,-78 0,-108 30,-30 78,-30 108,0z"/>
 </g>
</svg>
