<?xml version="1.0" encoding="UTF-8"?>
<!DOCTYPE svg PUBLIC "-//W3C//DTD SVG 1.1//EN" "http://www.w3.org/Graphics/SVG/1.1/DTD/svg11.dtd">
<!-- Creator: CorelDRAW 2018 (64-Bit) -->
<svg xmlns="http://www.w3.org/2000/svg" xml:space="preserve" width="33.0967mm" height="37.1376mm" version="1.1" style="shape-rendering:geometricPrecision; text-rendering:geometricPrecision; image-rendering:optimizeQuality; fill-rule:evenodd; clip-rule:evenodd"
viewBox="0 0 3582 4020"
 xmlns:xlink="http://www.w3.org/1999/xlink">
 <defs>
  <style type="text/css">
   <![CDATA[
    .fil0 {fill:#E42624;fill-rule:nonzero}
   ]]>
  </style>
 </defs>
 <g id="Слой_x0020_1">
  <metadata id="CorelCorpID_0Corel-Layer"/>
  <g id="_2425340538848">
   <path class="fil0" d="M3161 669c-124,-16 -246,-43 -361,-82 -31,-10 -64,6 -75,37 -10,31 6,64 37,75 123,41 252,70 384,87 198,25 340,208 315,408 -32,262 -90,653 -188,1028 -106,408 -230,693 -369,845 -286,312 -644,589 -894,766 -131,93 -308,93 -440,0 -250,-177 -608,-454 -894,-766 -139,-152 -263,-436 -369,-845 -97,-375 -156,-766 -188,-1028 -24,-200 117,-383 315,-408 571,-72 950,-359 1167,-587 49,-52 116,-81 188,-81 72,0 139,29 188,81 156,164 337,298 537,398 29,15 64,3 79,-26 15,-29 3,-64 -26,-79 -188,-94 -358,-220 -505,-374 -72,-76 -169,-117 -274,-117 -105,0 -202,42 -274,117 -204,214 -560,484 -1097,552 -262,33 -450,275 -417,539 55,450 222,1539 587,1938 293,320 658,602 913,783 86,61 187,91 288,91 101,0 202,-30 288,-91 255,-181 620,-463 913,-783 365,-399 532,-1488 587,-1938 32,-264 -155,-506 -417,-539z"/>
   <path class="fil0" d="M1658 553c-298,258 -646,426 -1034,501 -118,23 -198,135 -182,254 27,202 84,578 151,838 123,474 241,654 301,719 197,215 561,502 761,654 40,30 87,45 135,45 48,0 95,-15 135,-45 200,-152 565,-439 761,-654 60,-65 178,-246 301,-719 67,-260 123,-637 151,-838 16,-120 -64,-232 -182,-254 -388,-75 -736,-244 -1034,-501 -76,-66 -190,-66 -266,0zm1364 740c-27,199 -82,571 -148,825 -124,479 -241,633 -274,669 -197,216 -587,519 -746,640 -37,28 -90,28 -127,0 -158,-120 -548,-424 -746,-640 -33,-36 -150,-191 -274,-669 -66,-254 -121,-626 -148,-825 -8,-58 30,-112 87,-123 408,-79 775,-257 1088,-528 16,-14 36,-21 56,-21 20,0 40,7 56,21 314,271 680,449 1088,528 57,11 95,65 87,123z"/>
   <path class="fil0" d="M1465 1838c-44,-36 -194,-111 -301,31 -107,141 -13,265 31,301l171 139c25,21 62,17 83,-9 21,-25 17,-62 -8,-83l-171 -139c-20,-16 -63,-69 -14,-135 49,-66 115,-30 135,-14l354 288c23,19 57,17 79,-4l517 -513c38,-37 99,-37 136,1 37,38 37,99 -1,136l-616 611c-49,47 -103,27 -128,6l-98 -80c-25,-20 -62,-17 -83,9 -21,25 -17,62 9,83l98 80c38,31 86,48 135,48 57,0 110,-22 151,-62l616 -611c84,-83 84,-219 1,-302 -83,-84 -219,-84 -302,-1l-480 475 -313 -254z"/>
  </g>
 </g>
</svg>
