<?xml version="1.0" encoding="UTF-8"?>
<!DOCTYPE svg PUBLIC "-//W3C//DTD SVG 1.1//EN" "http://www.w3.org/Graphics/SVG/1.1/DTD/svg11.dtd">
<!-- Creator: CorelDRAW 2018 (64-Bit) -->
<svg xmlns="http://www.w3.org/2000/svg" xml:space="preserve" width="28.0956mm" height="35.9828mm" version="1.1" style="shape-rendering:geometricPrecision; text-rendering:geometricPrecision; image-rendering:optimizeQuality; fill-rule:evenodd; clip-rule:evenodd"
viewBox="0 0 2601 3331"
 xmlns:xlink="http://www.w3.org/1999/xlink">
 <defs>
  <style type="text/css">
   <![CDATA[
    .fil0 {fill:white;fill-rule:nonzero}
   ]]>
  </style>
 </defs>
 <g id="Слой_x0020_1">
  <metadata id="CorelCorpID_0Corel-Layer"/>
  <g id="_2721075459232">
   <path class="fil0" d="M2448 0l-2295 0c-84,0 -153,69 -153,153l0 3025c0,84 69,153 153,153l2347 0c27,0 49,-22 49,-49 0,-27 -22,-49 -49,-49l-3 0 0 -328c61,-20 104,-78 104,-145l0 -2607c0,-84 -69,-153 -153,-153zm56 2761c0,31 -25,56 -56,56l-104 0c-27,0 -49,22 -49,49 0,27 22,49 49,49l56 0 0 111 -2141 0c-27,0 -49,22 -49,49 0,27 22,49 49,49l2141 0 0 111 -2246 0c-31,0 -56,-25 -56,-56l0 -209c0,-31 25,-55 56,-55l1982 0c27,0 49,-22 49,-49 0,-27 -22,-49 -49,-49l-1829 0 0 -2454c0,-27 -22,-49 -49,-49 -27,0 -49,22 -49,49l0 2454 -55 0c-20,0 -38,4 -56,10l0 -2673c0,-31 25,-55 56,-55l55 0 0 55c0,27 22,49 49,49 27,0 49,-22 49,-49l0 -55 2141 0c31,0 56,25 56,55l0 2607z"/>
   <path class="fil0" d="M1822 1043c-11,0 -21,1 -32,2 -61,-157 -214,-263 -385,-263 -171,0 -323,106 -385,263 -11,-1 -22,-2 -32,-2 -171,0 -310,139 -310,310 0,154 113,282 261,306l0 216c0,84 69,153 153,153l626 0c84,0 153,-69 153,-153l0 -216c148,-23 261,-152 261,-306 0,-171 -139,-310 -310,-310zm-104 887l-626 0c-31,0 -56,-25 -56,-56l0 -56 212 0c0,0 0,0 0,0 0,0 0,0 0,0l313 0c0,0 0,0 0,0 0,0 0,0 0,0l212 0 0 56c0,31 -25,56 -56,56zm104 -365c-27,0 -49,22 -49,49l0 108 -144 0 83 -249c9,-26 -5,-53 -31,-62 -26,-9 -53,5 -62,31l-93 280 -72 0 0 -316c0,-27 -22,-49 -49,-49 -27,0 -49,22 -49,49l0 316 -72 0 -93 -280c-9,-26 -36,-39 -62,-31 -26,9 -39,36 -31,62l83 249 -144 0 0 -108c0,-27 -22,-49 -49,-49 -117,0 -212,-95 -212,-212 0,-117 95,-212 212,-212 16,0 33,2 53,8 26,7 52,-9 59,-35 37,-138 163,-234 305,-234 142,0 268,96 305,234 7,26 33,41 59,35 20,-5 37,-8 53,-8 117,0 212,95 212,212 0,117 -95,212 -212,212z"/>
   <path class="fil0" d="M1822 2190l-834 0c-27,0 -49,22 -49,49 0,27 22,49 49,49l834 0c27,0 49,-22 49,-49 0,-27 -22,-49 -49,-49z"/>
   <path class="fil0" d="M1665 2451l-521 0c-27,0 -49,22 -49,49 0,27 22,49 49,49l521 0c27,0 49,-22 49,-49 0,-27 -22,-49 -49,-49z"/>
   <path class="fil0" d="M987 619l835 0c84,0 153,-69 153,-153 0,-84 -69,-153 -153,-153l-835 0c-84,0 -153,69 -153,153 0,84 69,153 153,153zm0 -209l835 0c31,0 55,25 55,56 0,31 -25,55 -55,55l-835 0c-30,0 -55,-25 -55,-56 0,-31 25,-55 55,-55z"/>
   <path class="fil0" d="M723 466c0,-27 -22,-49 -49,-49l-52 0c-27,0 -49,22 -49,49 0,27 22,49 49,49l52 0c27,0 49,-22 49,-49z"/>
   <path class="fil0" d="M2187 417l-52 0c-27,0 -49,22 -49,49 0,27 22,49 49,49l52 0c27,0 49,-22 49,-49 0,-27 -22,-49 -49,-49z"/>
  </g>
 </g>
</svg>
