<?xml version="1.0" encoding="UTF-8"?>
<!DOCTYPE svg PUBLIC "-//W3C//DTD SVG 1.1//EN" "http://www.w3.org/Graphics/SVG/1.1/DTD/svg11.dtd">
<!-- Creator: CorelDRAW 2018 (64-Bit) -->
<svg xmlns="http://www.w3.org/2000/svg" xml:space="preserve" width="36.5633mm" height="37.1373mm" version="1.1" style="shape-rendering:geometricPrecision; text-rendering:geometricPrecision; image-rendering:optimizeQuality; fill-rule:evenodd; clip-rule:evenodd"
viewBox="0 0 5809 5900"
 xmlns:xlink="http://www.w3.org/1999/xlink">
 <defs>
  <style type="text/css">
   <![CDATA[
    .fil0 {fill:#E42624;fill-rule:nonzero}
   ]]>
  </style>
 </defs>
 <g id="Слой_x0020_1">
  <metadata id="CorelCorpID_0Corel-Layer"/>
  <path class="fil0" d="M5738 2528c-61,-92 -154,-156 -262,-180 70,-133 67,-299 -22,-433 -63,-95 -158,-157 -262,-180 18,-35 32,-73 40,-113 23,-111 1,-225 -62,-320 -61,-92 -154,-156 -262,-180 70,-133 67,-299 -22,-433 -129,-196 -394,-249 -590,-120l-424 281c-226,-115 -466,-196 -715,-242 -79,-120 -170,-231 -273,-330l-175 -170c-128,-124 -330,-143 -479,-44 -176,117 -225,355 -108,531 5,7 9,14 14,21 -574,116 -1098,421 -1485,868 -420,485 -652,1106 -652,1748 0,123 8,247 25,367 128,934 750,1738 1623,2100 324,134 667,202 1021,202 560,0 1096,-171 1550,-496 444,-317 777,-755 961,-1266 17,-48 -7,-100 -55,-117 -48,-17 -100,7 -117,55 -172,476 -481,884 -895,1179 -423,302 -922,462 -1443,462 -270,0 -533,-43 -785,-126l746 -494c0,0 0,0 0,0 0,0 0,0 0,0l620 -411 0 0c56,-37 94,-93 107,-159 13,-65 0,-132 -37,-188l-8 -12 121 -80c86,-57 189,-79 291,-63 147,24 297,-9 422,-91l999 -662c-7,87 -18,173 -34,258 -9,50 24,98 73,107 6,1 11,2 17,2 43,0 82,-31 90,-75 25,-137 40,-277 44,-417l282 -187c95,-63 159,-159 182,-270 23,-111 1,-225 -62,-320zm-2042 -1560l-280 186 -55 -149c-23,-62 -49,-123 -79,-182 142,36 281,85 414,145zm-2905 636c372,-429 880,-718 1435,-818 89,216 110,457 57,686l-224 966c-35,-38 -81,-63 -132,-74 -66,-13 -132,0 -188,37l-634 420c0,0 0,0 0,0 0,0 0,0 0,0l-914 605c-5,-64 -8,-129 -8,-194 0,-598 216,-1176 607,-1628zm2388 2886c-4,18 -14,33 -29,42l0 0 -545 361 -1011 -1508c-28,-42 -85,-53 -127,-25 -42,28 -53,85 -25,127l1011 1507 -778 515c-773,-338 -1326,-1052 -1459,-1883l915 -604 105 157c18,26 47,41 76,41 18,0 35,-5 51,-16 42,-28 53,-85 25,-127l-105 -156 557 -368c15,-10 33,-13 50,-10 17,4 33,14 42,29l1236 1867c10,15 13,33 10,50zm2442 -1679c-13,63 -50,118 -104,154l-322 213c0,0 0,0 0,0l-1149 761c-86,57 -189,79 -291,63 -147,-24 -297,9 -422,91l-121 80 -1012 -1529 262 -1131c67,-291 32,-598 -97,-865 -1,-3 -2,-5 -4,-8 -25,-51 -53,-100 -84,-147 -61,-92 -36,-216 56,-277 78,-51 183,-42 250,23l175 170c190,184 338,412 430,659l95 257c0,0 0,1 1,1 0,1 0,1 1,2 1,2 1,3 2,4 2,4 4,8 6,11 28,42 85,54 127,26l978 -648c111,-74 262,-43 335,68 74,111 43,262 -68,335l-85 56c0,0 0,0 0,0l-189 125c0,0 0,0 -1,0 -1,1 -2,1 -3,2 -39,29 -49,83 -22,124 28,42 85,54 127,26l190 -126c54,-36 118,-48 182,-35 63,13 118,50 154,104 36,54 48,118 35,182 -13,63 -50,118 -104,154l-274 182c-42,28 -54,85 -26,127 18,27 47,41 77,41 17,0 35,-5 51,-15l42 -28 147 -97c111,-74 262,-43 335,68 74,111 43,262 -68,335l-137 91c-1,0 -1,1 -2,1l-135 90c-42,28 -54,85 -26,127 18,27 47,41 77,41 17,0 35,-5 51,-15l42 -28c0,0 0,0 0,0l147 -97c54,-36 118,-48 182,-35 63,13 118,50 154,104 36,54 48,118 35,182z"/>
 </g>
</svg>
