<?xml version="1.0" standalone="no"?>
<!DOCTYPE svg PUBLIC "-//W3C//DTD SVG 20010904//EN"
 "http://www.w3.org/TR/2001/REC-SVG-20010904/DTD/svg10.dtd">
<svg version="1.0" xmlns="http://www.w3.org/2000/svg"
 width="1088.000000pt" height="1088.000000pt" viewBox="0 0 1088.000000 1088.000000"
 preserveAspectRatio="xMidYMid meet">
<metadata>
Created by potrace 1.11, written by Peter Selinger 2001-2013
</metadata>
<g transform="translate(0.000000,1088.000000) scale(0.100000,-0.100000)"
fill="#000000" stroke="none">
<path d="M5088 10874 c-2 -1 -37 -5 -78 -8 -173 -12 -217 -16 -250 -21 -19 -3
-53 -8 -75 -11 -22 -3 -47 -7 -55 -9 -13 -4 -54 -10 -135 -21 -11 -1 -21 -3
-22 -4 -4 -3 -3 -3 -88 -20 -38 -8 -73 -13 -77 -12 -5 1 -8 -2 -8 -6 0 -4 -8
-8 -17 -8 -27 -2 -221 -52 -273 -71 -8 -4 -19 -7 -25 -9 -5 -2 -46 -17 -90
-33 -44 -16 -96 -34 -115 -41 -19 -7 -39 -16 -45 -20 -5 -3 -29 -12 -52 -20
-24 -7 -43 -18 -43 -23 0 -6 -3 -7 -6 -4 -4 3 -16 1 -28 -5 -11 -7 -23 -13
-26 -13 -3 -1 -34 -16 -70 -33 l-65 -32 -64 -122 c-35 -68 -68 -126 -73 -129
-6 -3 -9 -10 -9 -15 1 -18 -11 -44 -20 -44 -6 0 -7 -4 -4 -10 3 -5 1 -10 -4
-10 -6 0 -10 -3 -9 -7 1 -5 -20 -51 -46 -103 -26 -52 -61 -129 -78 -170 -16
-41 -34 -84 -39 -95 -16 -35 -97 -286 -129 -400 -32 -112 -37 -131 -46 -175
-3 -14 -7 -32 -9 -40 -2 -8 -4 -16 -5 -17 -2 -2 -3 -6 -4 -10 -1 -5 -5 -17 -9
-28 -3 -11 -8 -31 -11 -45 -2 -14 -9 -43 -14 -65 -6 -22 -13 -51 -16 -65 -6
-28 -8 -38 -30 -131 -8 -37 -17 -78 -20 -90 -2 -13 -9 -44 -15 -69 -5 -25 -12
-61 -16 -80 -3 -19 -8 -48 -12 -65 -3 -16 -7 -39 -9 -50 -1 -11 -5 -35 -8 -52
-3 -18 -9 -48 -12 -65 -5 -31 -7 -46 -20 -128 -3 -19 -7 -51 -9 -70 -2 -19 -7
-51 -10 -70 -3 -19 -7 -53 -9 -75 -3 -22 -5 -40 -6 -40 -1 0 -3 -22 -4 -50 -1
-27 -5 -55 -9 -62 -21 -33 44 -12 83 27 9 9 119 80 124 80 3 0 21 11 41 24 33
23 253 140 265 141 3 0 25 10 50 22 61 30 104 47 113 45 4 -1 7 3 7 9 0 5 5 7
10 4 6 -3 10 -1 10 6 0 7 3 9 7 6 3 -4 12 -2 20 4 7 6 13 9 13 6 0 -3 24 4 53
17 65 29 89 38 102 42 6 1 64 21 130 44 66 23 125 43 130 44 6 2 30 9 55 16
25 7 51 15 58 16 8 1 21 6 30 10 9 4 22 8 27 8 6 1 30 8 55 15 25 7 54 15 65
18 30 6 38 9 60 16 11 3 31 8 45 11 14 2 43 9 65 14 22 6 51 13 65 16 14 2 45
9 70 15 25 5 56 12 70 14 81 15 107 20 125 24 11 2 33 6 48 8 15 2 47 7 70 11
23 3 56 8 72 9 17 2 30 4 30 5 0 1 14 3 30 5 17 2 57 6 91 10 137 15 263 25
385 29 47 1 90 5 96 9 6 4 13 4 17 0 9 -10 66 -9 66 1 0 5 6 4 13 -2 6 -5 21
-6 32 -2 11 4 34 4 52 -1 18 -4 33 -4 33 0 0 4 10 7 23 5 12 -1 22 -3 22 -4 0
-1 43 -3 95 -5 168 -6 372 -22 490 -40 14 -2 49 -6 79 -9 30 -3 62 -8 70 -11
18 -5 53 -11 121 -20 25 -3 53 -8 62 -11 9 -3 25 -6 35 -8 74 -15 173 -37 201
-45 18 -5 35 -10 37 -10 14 -2 68 -15 130 -34 39 -11 75 -21 80 -22 6 -1 12
-3 15 -4 3 -2 13 -4 23 -7 27 -6 41 -10 57 -17 23 -8 90 -29 103 -31 11 -2 50
-16 227 -83 72 -27 144 -56 205 -83 22 -10 69 -30 105 -46 36 -15 116 -54 178
-86 61 -32 112 -54 112 -50 0 4 4 2 8 -4 4 -5 42 -29 85 -53 155 -84 458 -273
495 -308 8 -7 23 -18 35 -25 20 -10 207 -149 234 -173 6 -5 24 -20 40 -32 15
-12 39 -31 53 -42 14 -11 37 -31 53 -43 222 -182 619 -570 892 -872 10 -11
154 -185 180 -218 7 -9 37 -51 65 -92 29 -42 53 -76 55 -76 4 0 -3 138 -11
200 -3 25 -7 72 -10 105 -2 33 -7 67 -9 75 -3 8 -7 38 -10 65 -3 28 -8 57 -11
66 -2 9 -7 34 -9 55 -2 22 -7 50 -10 64 -3 14 -8 36 -11 50 -6 34 -10 55 -24
120 -7 30 -12 61 -13 68 0 6 -3 12 -6 12 -3 0 -7 14 -8 31 -1 17 -7 37 -13 44
-5 6 -8 14 -5 16 2 3 -5 34 -16 69 -11 36 -23 76 -25 90 -3 14 -9 39 -14 55
-22 69 -61 184 -84 248 -13 37 -22 67 -19 67 3 0 1 6 -4 13 -6 6 -16 30 -23
52 -7 22 -16 45 -20 50 -4 6 -10 19 -13 30 -3 11 -22 58 -42 105 -20 47 -38
90 -39 95 -1 6 -29 64 -61 130 -58 119 -61 127 -64 144 0 5 -7 16 -14 23 -7 7
-24 36 -37 63 -13 28 -26 52 -29 55 -3 3 -24 41 -46 84 -22 44 -45 84 -50 90
-6 6 -17 24 -25 40 -29 57 -35 66 -42 66 -5 0 -8 4 -8 9 0 12 -82 145 -92 149
-5 2 -8 8 -8 13 0 6 -5 15 -11 22 -5 7 -42 57 -80 112 -73 104 -78 112 -159
211 -28 34 -50 65 -50 68 0 3 -8 14 -17 24 -16 16 -44 48 -153 175 -82 95
-383 388 -456 443 -21 16 -46 36 -55 45 -9 9 -43 36 -75 60 -33 24 -61 46 -64
49 -3 3 -12 10 -21 15 -9 6 -56 37 -105 71 -102 69 -215 139 -227 139 -4 0
-12 7 -17 15 -5 8 -10 12 -10 8 0 -4 -28 9 -62 29 -83 47 -195 104 -205 104
-5 0 -22 9 -39 20 -17 10 -34 16 -37 12 -4 -3 -7 -1 -7 5 0 7 -4 12 -9 12 -5
0 -42 15 -83 34 -40 18 -104 46 -143 61 -38 15 -82 34 -97 42 -16 8 -28 11
-28 7 0 -3 -6 -1 -13 5 -8 6 -22 12 -33 14 -10 2 -32 10 -49 16 -16 7 -37 14
-45 16 -8 2 -17 4 -20 5 -3 1 -8 2 -12 1 -5 0 -8 3 -8 7 0 5 -6 9 -12 9 -7 0
-58 15 -113 32 -87 29 -219 66 -265 76 -8 2 -15 4 -15 5 0 1 -8 3 -19 5 -33 6
-120 26 -156 35 -55 13 -182 38 -230 44 -22 3 -80 13 -135 22 -23 4 -58 12
-65 14 -3 1 -9 2 -14 1 -5 -1 -59 3 -120 10 -61 6 -129 13 -151 15 -49 5 -613
12 -617 8z"/>
<path d="M2905 10131 c-74 -38 -82 -43 -211 -126 -238 -155 -598 -495 -840
-794 -10 -13 -24 -28 -29 -35 -6 -6 -28 -33 -50 -61 -22 -27 -42 -52 -45 -55
-3 -3 -39 -50 -80 -105 -41 -55 -77 -102 -80 -105 -3 -3 -25 -34 -50 -70 -24
-36 -48 -66 -52 -68 -4 -2 -8 -9 -8 -15 0 -7 -11 -24 -25 -39 -14 -15 -25 -31
-25 -36 0 -5 -11 -22 -25 -38 -14 -16 -25 -34 -25 -40 0 -6 -9 -19 -20 -29
-11 -10 -20 -24 -20 -32 0 -7 -4 -13 -8 -13 -4 0 -18 -19 -30 -42 -13 -24 -54
-95 -92 -158 -68 -112 -213 -390 -240 -460 -8 -19 -17 -37 -22 -40 -4 -3 -9
-15 -12 -25 -9 -42 -19 -65 -28 -65 -5 0 -7 -4 -4 -8 3 -5 -1 -20 -9 -35 -7
-14 -11 -28 -7 -31 3 -3 0 -6 -6 -6 -7 0 -11 -3 -10 -7 0 -5 -1 -15 -5 -23
-22 -58 -66 -185 -72 -210 -1 -3 -6 -16 -12 -30 -9 -22 -58 -194 -79 -275 -4
-16 -9 -37 -11 -45 -2 -8 -6 -24 -8 -35 -2 -11 -7 -31 -10 -45 -3 -14 -8 -34
-10 -45 -2 -11 -6 -31 -9 -45 -3 -14 -10 -54 -16 -90 -5 -36 -12 -74 -14 -85
-2 -11 -7 -49 -11 -85 -4 -36 -9 -74 -11 -85 -19 -101 -26 -567 -11 -750 13
-154 14 -163 33 -290 2 -16 6 -43 9 -60 3 -25 9 -61 19 -128 1 -7 5 -18 9 -24
5 -7 6 -13 4 -13 -3 0 -1 -17 4 -37 6 -21 12 -51 16 -68 9 -48 11 -60 13 -60
1 0 3 -9 5 -21 3 -11 12 -47 20 -80 9 -32 18 -63 19 -69 20 -74 98 -321 115
-360 5 -11 14 -36 21 -55 7 -19 18 -48 25 -65 8 -16 23 -55 35 -85 27 -69 36
-89 101 -225 29 -60 53 -112 53 -115 2 -7 95 -188 116 -225 70 -122 90 -157
90 -161 0 -3 8 -17 19 -32 10 -15 45 -69 77 -120 33 -52 67 -106 76 -120 10
-15 21 -34 25 -42 3 -8 9 -17 13 -20 3 -3 33 -43 65 -90 33 -47 63 -87 67 -88
4 -2 8 -9 8 -15 0 -7 24 -42 53 -79 28 -36 87 -111 130 -166 l77 -99 123 3
c67 2 122 3 122 4 0 1 52 3 115 5 160 5 350 16 515 29 143 12 222 18 255 22
19 1 64 6 100 9 36 3 79 8 95 10 17 2 57 7 90 10 33 4 67 8 75 10 8 2 40 6 70
10 30 3 73 8 94 11 21 4 53 8 70 10 17 2 49 6 71 10 22 3 51 7 65 9 14 2 25 4
25 5 0 1 16 3 36 5 20 3 54 8 75 13 21 5 49 8 62 7 12 -1 22 1 22 5 0 3 15 7
33 8 32 3 72 9 72 12 0 1 9 3 20 5 11 2 36 7 55 10 19 4 44 9 55 11 20 4 240
50 284 60 14 3 28 7 31 9 4 2 22 7 41 10 19 3 61 13 94 22 33 8 71 17 85 20
14 3 30 6 35 7 12 2 109 31 191 58 34 10 73 21 87 24 14 2 36 8 48 12 20 8 20
9 -12 22 -87 35 -568 276 -579 291 -3 3 -21 14 -40 24 -38 19 -272 165 -280
175 -3 3 -18 14 -35 24 -36 23 -286 209 -306 228 -8 7 -43 38 -79 68 -192 162
-405 382 -547 565 -5 6 -24 30 -43 55 -19 25 -38 47 -42 48 -5 2 -6 8 -2 13 3
5 1 9 -5 9 -6 0 -18 15 -27 33 -9 17 -20 34 -23 37 -11 9 -91 128 -98 146 -4
10 -16 29 -27 42 -12 13 -21 27 -21 30 0 4 -23 48 -51 97 -71 126 -194 382
-194 405 0 5 -4 10 -8 10 -5 0 -9 6 -9 13 0 6 -18 62 -40 122 -46 125 -99 295
-118 380 -2 6 -7 28 -13 50 -6 22 -13 51 -16 65 -3 14 -7 35 -10 48 -12 48
-17 68 -21 102 -3 19 -8 46 -11 60 -3 13 -7 40 -10 60 -2 19 -6 42 -9 50 -2 8
-7 36 -10 63 -11 99 -15 133 -19 152 -2 12 -7 70 -11 130 -4 61 -9 126 -11
145 -4 46 -4 529 1 600 11 170 17 248 20 275 2 17 6 61 10 98 3 37 8 78 10 89
6 28 16 112 20 163 2 22 5 41 6 43 3 4 18 84 24 132 1 8 5 38 9 65 8 56 14 90
16 90 2 0 6 18 14 65 9 53 14 77 36 180 12 52 23 104 25 115 4 17 38 160 49
205 2 8 14 51 25 95 12 44 24 87 26 95 2 8 4 15 5 15 1 0 3 11 5 25 2 14 13
57 25 95 12 39 23 79 25 90 21 96 152 453 220 600 19 43 34 79 33 80 -2 1 -35
-14 -73 -34z"/>
<path d="M8679 7268 c0 -13 -2 -84 -4 -159 -4 -189 -21 -408 -39 -529 -2 -14
-7 -52 -11 -84 -8 -63 -12 -91 -15 -91 -1 0 -3 -16 -5 -35 -2 -19 -6 -46 -10
-60 -3 -14 -9 -38 -12 -55 -8 -45 -11 -60 -13 -60 -1 0 -3 -11 -6 -25 -3 -20
-31 -133 -49 -200 -2 -8 -13 -47 -23 -86 -11 -40 -23 -77 -26 -83 -4 -6 -10
-23 -12 -38 -3 -15 -9 -32 -15 -39 -5 -6 -6 -14 -2 -17 3 -4 2 -7 -4 -7 -9 0
-22 -43 -24 -77 -1 -5 -7 -19 -15 -33 -7 -14 -32 -70 -55 -125 -23 -55 -44
-104 -47 -110 -4 -5 -7 -14 -8 -20 -1 -5 -17 -37 -36 -70 -18 -33 -42 -79 -52
-102 -11 -24 -22 -43 -26 -43 -4 0 -7 -6 -7 -12 0 -13 -109 -194 -167 -278
-71 -104 -193 -264 -228 -302 -10 -10 -16 -18 -13 -18 3 0 -14 -20 -37 -44
-24 -25 -72 -77 -108 -117 -36 -40 -81 -87 -100 -105 -19 -18 -65 -61 -101
-96 -92 -88 -227 -200 -419 -346 -49 -37 -299 -202 -324 -214 -14 -6 -26 -15
-26 -20 0 -4 -5 -8 -11 -8 -6 0 -37 -15 -68 -34 -78 -47 -124 -73 -206 -115
-38 -20 -71 -39 -73 -43 -2 -5 -8 -8 -13 -8 -5 0 -57 -23 -117 -51 -105 -49
-151 -71 -222 -102 -19 -8 -57 -25 -85 -37 -27 -12 -54 -23 -60 -25 -12 -2
-62 -23 -87 -36 -10 -5 -23 -9 -29 -9 -6 0 -25 -6 -42 -14 -18 -7 -45 -19 -62
-26 -65 -27 -421 -143 -437 -142 -10 0 -18 -3 -18 -6 0 -4 -8 -8 -17 -9 -10
-1 -38 -8 -63 -17 -39 -13 -339 -93 -380 -101 -8 -2 -35 -8 -59 -15 -25 -6
-56 -13 -70 -15 -14 -2 -26 -4 -26 -5 0 -3 -105 -26 -160 -36 -11 -1 -31 -5
-45 -8 -108 -24 -220 -45 -320 -61 -19 -3 -42 -8 -50 -10 -8 -2 -40 -7 -70
-10 -30 -4 -57 -8 -60 -10 -3 -2 -27 -6 -55 -9 -27 -4 -61 -9 -75 -11 -36 -6
-189 -26 -230 -31 -19 -2 -48 -6 -65 -8 -33 -4 -137 -16 -200 -23 -22 -2 -67
-6 -100 -8 -33 -2 -60 -4 -60 -5 0 -1 -20 -4 -45 -5 -25 -1 -45 -3 -45 -4 0
-2 -27 -4 -200 -16 -55 -4 -125 -9 -155 -11 -30 -2 -127 -6 -215 -10 -88 -3
-161 -7 -163 -9 -1 -1 16 -27 40 -56 23 -30 46 -58 50 -64 50 -64 238 -264
362 -384 123 -119 132 -128 216 -201 41 -36 79 -70 85 -76 5 -6 42 -37 80 -69
39 -33 75 -64 82 -69 7 -6 18 -15 25 -21 8 -5 41 -34 75 -62 34 -29 66 -53 72
-53 5 0 14 -6 18 -13 9 -13 92 -80 213 -171 41 -30 80 -59 85 -63 78 -62 387
-281 433 -308 17 -11 32 -23 32 -27 0 -4 4 -8 8 -8 5 0 72 -43 151 -95 78 -52
146 -95 151 -95 4 0 13 -7 20 -15 7 -8 24 -21 39 -28 41 -21 76 -41 81 -48 3
-4 21 -16 40 -27 19 -10 95 -56 168 -101 72 -44 132 -77 132 -73 0 4 4 2 8 -4
4 -6 34 -26 67 -44 33 -18 65 -36 70 -40 6 -4 53 -29 105 -56 52 -27 97 -51
100 -54 3 -3 41 -23 85 -45 44 -21 105 -51 136 -66 l57 -28 111 55 c61 30 114
54 117 54 4 -1 10 2 13 7 3 4 31 21 61 37 102 54 256 138 305 167 17 10 52 30
79 44 80 43 91 50 96 55 6 6 112 68 153 89 15 8 27 18 27 23 0 4 4 8 10 8 11
0 194 115 348 219 62 42 121 81 130 86 19 12 25 16 82 57 25 18 65 47 90 63
25 17 56 40 70 53 14 12 28 22 32 22 3 0 13 6 20 13 7 6 35 28 61 47 116 85
437 340 502 400 12 10 41 35 65 55 199 165 599 553 794 768 43 48 88 98 100
110 12 13 39 46 61 72 22 27 50 59 63 71 12 13 22 26 22 29 0 3 8 13 18 23 9
10 33 38 52 62 19 24 47 58 61 75 68 80 321 430 344 475 5 11 13 20 17 20 5 0
8 7 8 15 0 8 5 15 10 15 6 0 10 7 10 15 0 8 5 15 10 15 6 0 10 7 10 15 0 8 4
15 9 15 5 0 11 8 15 18 6 18 27 53 37 62 3 3 20 31 38 62 18 32 37 60 42 63 5
4 7 11 4 16 -4 5 -1 9 4 9 6 0 11 7 11 15 0 8 5 15 11 15 5 0 8 4 4 9 -3 5 1
16 9 23 7 8 24 34 36 59 13 24 28 47 34 51 6 4 8 8 4 8 -4 0 5 21 20 47 34 58
191 380 197 403 1 3 9 23 19 45 10 22 31 74 48 115 16 41 35 89 43 105 17 40
66 189 64 195 -2 3 3 15 10 28 22 42 128 414 136 482 2 14 6 36 10 50 3 14 8
34 10 45 2 11 6 30 8 42 3 12 13 73 23 135 l17 114 -27 42 c-14 23 -26 46 -26
52 0 5 -4 10 -10 10 -5 0 -10 7 -10 15 0 8 -4 15 -9 15 -5 0 -12 8 -15 18 -4
10 -35 63 -71 117 -36 54 -65 102 -65 107 0 4 -4 8 -10 8 -5 0 -10 7 -10 15 0
8 -4 15 -10 15 -5 0 -10 4 -10 10 0 5 -6 18 -14 27 -8 10 -45 56 -83 103 -37
47 -72 90 -78 96 -5 6 -30 34 -55 64 -63 74 -434 445 -564 565 -60 55 -119
110 -132 123 -13 12 -25 22 -27 22 -3 0 -22 16 -43 36 -22 20 -95 80 -164 135
-69 54 -132 106 -141 114 -22 21 -29 19 -30 -7z"/>
</g>
</svg>
